<?xml version="1.0" encoding="UTF-8" standalone="no" ?>
<!DOCTYPE svg PUBLIC "-//W3C//DTD SVG 1.1//EN" "http://www.w3.org/Graphics/SVG/1.1/DTD/svg11.dtd">
<svg xmlns="http://www.w3.org/2000/svg" xmlns:xlink="http://www.w3.org/1999/xlink" version="1.1" width="400" height="400" viewBox="0 0 400 400" xml:space="preserve">
<desc>Created with Fabric.js 3.6.2</desc>
<defs>
</defs>
<g transform="matrix(3.13 0 0 3.13 187.03 200)" id="Layer_2"  >
<polygon style="stroke: none; stroke-width: 1; stroke-dasharray: none; stroke-linecap: butt; stroke-dashoffset: 0; stroke-linejoin: miter; stroke-miterlimit: 4; fill: rgb(255,255,255); fill-rule: nonzero; opacity: 1;"  points="-0.75,-7.9 -3.35,7.9 0.75,7.9 3.35,-7.9 -0.75,-7.9 " />
</g>
<g transform="matrix(3.13 0 0 3.13 256.09 200.16)" id="Layer_2"  >
<path style="stroke: none; stroke-width: 1; stroke-dasharray: none; stroke-linecap: butt; stroke-dashoffset: 0; stroke-linejoin: miter; stroke-miterlimit: 4; fill: rgb(255,255,255); fill-rule: nonzero; opacity: 1;"  transform=" translate(-49.95, -32.05)" d="M 50.8 24.1 L 50.8 24.1 c -1 0 -1.7 0.3 -2.1 1.3 L 42.6 40 h 4.3 c 0 0 0.7 -2 0.9 -2.4 c 0.5 0 4.6 0 5.2 0 c 0.1 0.6 0.5 2.4 0.5 2.4 h 3.8 L 54 24.1 H 50.8 z M 48.9 34.3 c 0.3 -0.9 1.6 -4.4 1.6 -4.4 c 0 0 0.3 -0.9 0.5 -1.5 l 0 0 l 0.3 1.4 c 0 0 0.8 3.8 1 4.6 H 48.9 z" stroke-linecap="round" />
</g>
<g transform="matrix(3.13 0 0 3.13 216.56 199.69)" id="Layer_2"  >
<path style="stroke: none; stroke-width: 1; stroke-dasharray: none; stroke-linecap: butt; stroke-dashoffset: 0; stroke-linejoin: miter; stroke-miterlimit: 4; fill: rgb(255,255,255); fill-rule: nonzero; opacity: 1;"  transform=" translate(-37.3, -31.9)" d="M 39.4 30.5 c -1.4 -0.7 -2.3 -1.2 -2.3 -2 c 0 -0.7 0.7 -1.4 2.3 -1.4 c 1.3 0 2.3 0.3 3.1 0.6 l 0.4 0.2 l 0.6 -3.4 c -0.8 -0.3 -2.1 -0.7 -3.7 -0.7 l 0 0 c -4 0 -6.9 2.2 -6.9 5.2 c 0 2.3 2 3.6 3.6 4.3 c 1.6 0.8 2.1 1.3 2.1 2 c 0 1.1 -1.3 1.5 -2.5 1.5 c -1.6 0 -2.5 -0.2 -3.9 -0.8 l -0.5 -0.3 l -0.6 3.5 c 1 0.4 2.7 0.8 4.6 0.8 c 4.3 0 7.1 -2.1 7.1 -5.4 C 42.9 33 41.8 31.6 39.4 30.5 z" stroke-linecap="round" />
</g>
<g transform="matrix(3.13 0 0 3.13 150 200)" id="Layer_2"  >
<path style="stroke: none; stroke-width: 1; stroke-dasharray: none; stroke-linecap: butt; stroke-dashoffset: 0; stroke-linejoin: miter; stroke-miterlimit: 4; fill: rgb(255,255,255); fill-rule: nonzero; opacity: 1;"  transform=" translate(-16, -32)" d="M 21.1 24.1 L 21.1 24.1 l -4 10.8 l -0.4 -2.2 c 0 0 0 0 0 0 l -1.4 -7.3 c -0.2 -1 -1 -1.3 -1.9 -1.3 H 6.9 c -0.1 0 -0.1 0.1 -0.2 0.1 c 0 0.1 0 0.2 0.1 0.2 c 1 0.3 1.9 0.6 2.7 1 c 0.9 0.4 1.5 1.2 1.8 2.1 l 3.3 12.4 l 4.3 0 l 6.4 -15.8 H 21.1 z" stroke-linecap="round" />
</g>
</svg>